<mxfile host="app.diagrams.net" modified="2021-09-12T21:44:48.672Z" agent="5.0 (Windows NT 10.0; Win64; x64) AppleWebKit/537.36 (KHTML, like Gecko) Chrome/93.0.4577.63 Safari/537.36" etag="TX22jyb4AoWWW4jvXf0N" version="15.0.6" type="github">
  <diagram name="Page-1" id="12e1b939-464a-85fe-373e-61e167be1490">
    <mxGraphModel dx="1490" dy="581" grid="1" gridSize="10" guides="1" tooltips="1" connect="1" arrows="1" fold="1" page="1" pageScale="1.5" pageWidth="1169" pageHeight="826" background="none" math="0" shadow="0">
      <root>
        <mxCell id="0" />
        <mxCell id="1" parent="0" />
        <mxCell id="60da8b9f42644d3a-2" value="&lt;ul&gt;&lt;li&gt;Registro de Transacción&lt;/li&gt;&lt;li&gt;Actualiza Inventario&lt;/li&gt;&lt;li&gt;Registra Clientes&lt;/li&gt;&lt;li&gt;Registra Productos&lt;/li&gt;&lt;li&gt;Registro Proveedores&lt;/li&gt;&lt;li&gt;Actualización de Productos&lt;/li&gt;&lt;/ul&gt;" style="whiteSpace=wrap;html=1;rounded=1;shadow=0;strokeWidth=8;fontSize=20;align=left;" parent="1" vertex="1">
          <mxGeometry x="210" y="405" width="280" height="430" as="geometry" />
        </mxCell>
        <mxCell id="60da8b9f42644d3a-3" value="Entrada" style="text;html=1;strokeColor=none;align=center;verticalAlign=middle;whiteSpace=wrap;rounded=0;shadow=0;fontSize=27;fontStyle=1;fontColor=#1A1A1A;" parent="1" vertex="1">
          <mxGeometry x="200" y="425" width="280" height="60" as="geometry" />
        </mxCell>
        <mxCell id="60da8b9f42644d3a-6" value="" style="line;strokeWidth=2;html=1;rounded=0;shadow=0;fontSize=27;align=center;fillColor=none;" parent="1" vertex="1">
          <mxGeometry x="220" y="485" width="240" height="10" as="geometry" />
        </mxCell>
        <mxCell id="60da8b9f42644d3a-17" value="&lt;ul&gt;&lt;li&gt;Actualiza Clientes&lt;/li&gt;&lt;li&gt;Actualiza Proveedores&lt;/li&gt;&lt;li&gt;Actualiza Productos&lt;/li&gt;&lt;li&gt;&lt;span&gt;Genera Reporte diario de Inventario&lt;/span&gt;&lt;/li&gt;&lt;li&gt;&lt;span&gt;Procesa Inventario&lt;/span&gt;&lt;/li&gt;&lt;/ul&gt;" style="whiteSpace=wrap;html=1;rounded=1;shadow=0;strokeWidth=8;fontSize=20;align=left;" parent="1" vertex="1">
          <mxGeometry x="596" y="405" width="280" height="430" as="geometry" />
        </mxCell>
        <mxCell id="60da8b9f42644d3a-18" value="Proceso" style="text;html=1;strokeColor=none;fillColor=none;align=center;verticalAlign=middle;whiteSpace=wrap;rounded=0;shadow=0;fontSize=27;fontStyle=1" parent="1" vertex="1">
          <mxGeometry x="596" y="425" width="280" height="60" as="geometry" />
        </mxCell>
        <mxCell id="60da8b9f42644d3a-20" value="" style="line;strokeWidth=2;html=1;rounded=0;shadow=0;fontSize=27;align=center;fillColor=none;" parent="1" vertex="1">
          <mxGeometry x="616" y="485" width="240" height="10" as="geometry" />
        </mxCell>
        <mxCell id="60da8b9f42644d3a-23" value="" style="html=1;shadow=0;dashed=0;align=center;verticalAlign=middle;shape=mxgraph.arrows2.stylisedArrow;dy=0.6;dx=40;notch=15;feather=0.4;rounded=0;strokeWidth=1;fontSize=27;strokeColor=none;fillColor=#808080;" parent="1" vertex="1">
          <mxGeometry x="496" y="560" width="100" height="60" as="geometry" />
        </mxCell>
        <mxCell id="60da8b9f42644d3a-24" value="&lt;ul&gt;&lt;li&gt;Nuevo Archivo de Inventario&lt;/li&gt;&lt;li&gt;Archivo de faltantes de surtir&lt;/li&gt;&lt;li&gt;Archivo de Inventario diario&lt;/li&gt;&lt;li&gt;Archivo de Productos&lt;/li&gt;&lt;li&gt;Archivo de Clientes&lt;/li&gt;&lt;li&gt;Archivo de Proveedores&lt;/li&gt;&lt;/ul&gt;" style="whiteSpace=wrap;html=1;rounded=1;shadow=0;strokeWidth=8;fontSize=20;align=left;" parent="1" vertex="1">
          <mxGeometry x="986" y="405" width="280" height="430" as="geometry" />
        </mxCell>
        <mxCell id="60da8b9f42644d3a-25" value="Salida" style="text;html=1;strokeColor=none;fillColor=none;align=center;verticalAlign=middle;whiteSpace=wrap;rounded=0;shadow=0;fontSize=27;fontStyle=1" parent="1" vertex="1">
          <mxGeometry x="986" y="425" width="280" height="60" as="geometry" />
        </mxCell>
        <mxCell id="60da8b9f42644d3a-27" value="" style="line;strokeWidth=2;html=1;rounded=0;shadow=0;fontSize=27;align=center;fillColor=none;" parent="1" vertex="1">
          <mxGeometry x="1000" y="485" width="240" height="10" as="geometry" />
        </mxCell>
        <mxCell id="60da8b9f42644d3a-30" value="" style="html=1;shadow=0;dashed=0;align=center;verticalAlign=middle;shape=mxgraph.arrows2.stylisedArrow;dy=0.6;dx=40;notch=15;feather=0.4;rounded=0;strokeWidth=1;fontSize=27;strokeColor=none;fillColor=#808080;" parent="1" vertex="1">
          <mxGeometry x="880" y="570" width="100" height="60" as="geometry" />
        </mxCell>
        <mxCell id="Fyy2xjR7odZirEY63Mee-1" style="edgeStyle=orthogonalEdgeStyle;rounded=0;orthogonalLoop=1;jettySize=auto;html=1;exitX=0.75;exitY=0;exitDx=0;exitDy=0;entryX=0.654;entryY=0.014;entryDx=0;entryDy=0;entryPerimeter=0;fontColor=#1A1A1A;" edge="1" parent="1" source="60da8b9f42644d3a-2" target="60da8b9f42644d3a-2">
          <mxGeometry relative="1" as="geometry" />
        </mxCell>
      </root>
    </mxGraphModel>
  </diagram>
</mxfile>
